PathFileType	4	(X/Y/Z)	\\147.46.242.158\로컬 디스크 (e)\MOCAP Data\Iguana Capture\iguana\Project 2\Capture day 7\Session 2\Take05.trc
DataRate	CameraRate	NumFrames	NumMarkers	Units	OrigDataRate	OrigDataStartFrame	OrigNumFrames
120.0	120.0	15	23	mm	120.0	73	17359
Frame#	Time	ana:head1			ana:head2			ana:bone1			ana:bone2			ana:bone3			ana:tail1			ana:tail2			ana:tail3			ana:tail4			ana:Rforefoot1			ana:Rforefoot2			ana:Rforefoot3			ana:Lforefoot1			ana:Lforefoot2			ana:Lforefoot3			ana:RhindLeg1			ana:RhindLeg2			ana:RhindLeg3			ana:RhindLeg4			ana:LhindLeg1			ana:LhindLeg2			ana:LhindLeg3			ana:LhindLeg4			
		X1	Y1	Z1	X2	Y2	Z2	X3	Y3	Z3	X4	Y4	Z4	X5	Y5	Z5	X6	Y6	Z6	X7	Y7	Z7	X8	Y8	Z8	X9	Y9	Z9	X10	Y10	Z10	X11	Y11	Z11	X12	Y12	Z12	X13	Y13	Z13	X14	Y14	Z14	X15	Y15	Z15	X16	Y16	Z16	X17	Y17	Z17	X18	Y18	Z18	X19	Y19	Z19	X20	Y20	Z20	X21	Y21	Z21	X22	Y22	Z22	X23	Y23	Z23	

7372	61.425	468.55911	-466.94586	55.81186	475.48865	-458.60187	55.93615	488.14923	-442.08026	46.70200	500.79193	-417.83560	41.83344	519.01825	-391.54230	34.22641	544.01666	-368.52365	25.53189	559.63159	-338.21851	17.98476	569.24414	-296.14642	9.46502	574.12695	-256.23883	4.96560	475.53922	-444.45840	28.97500	460.17105	-440.36624	27.14471	451.77332	-454.25314	22.16972	498.44662	-448.63910	29.99729	509.69800	-445.87622	25.67214	516.67389	-436.42316	7.91230	514.25409	-383.11139	27.30966	509.65485	-364.63574	23.86228	523.87152	-349.32837	19.44819	524.38287	-348.84448	4.55611	526.16321	-399.52740	28.69068	525.15747	-419.07397	28.55820	535.31891	-429.89774	10.00846	527.53558	-439.92529	9.13912	
7373	61.433	465.54056	-470.48584	55.51503	472.58124	-462.57541	55.93460	485.56418	-445.90085	45.70356	498.64456	-422.13324	41.47211	518.38513	-396.28326	33.83391	542.10272	-373.08218	25.48888	558.67041	-343.12820	18.19607	569.62830	-301.21033	9.76002	575.06268	-261.45020	5.19710	472.02225	-448.52936	28.04230	456.50714	-445.77597	24.81888	449.41986	-458.29861	17.36476	495.41443	-452.63165	29.84303	506.76202	-450.31497	26.33080	514.57660	-439.48779	7.24722	512.40448	-387.83414	28.01980	507.92188	-368.93622	24.90000	522.30530	-353.01807	21.00522	523.58728	-350.96051	6.74525	524.50916	-403.94339	27.93327	525.15991	-423.40991	25.64197	535.84540	-430.03528	6.04383	528.89758	-440.64783	4.82215	
7374	61.442	462.45609	-474.67087	54.44946	469.31677	-466.51663	55.62940	482.45517	-450.16788	45.38339	496.48602	-426.74246	40.54491	516.41791	-400.72351	33.67337	539.69562	-377.10080	25.32243	557.52075	-347.50208	18.44068	570.22620	-305.95206	10.00244	575.82019	-266.34256	5.21040	469.16455	-451.78580	26.16761	453.35611	-450.29517	21.61428	447.80112	-461.19232	12.01401	491.91733	-456.72522	29.06260	503.37717	-454.67786	26.27092	512.29028	-447.78577	10.07648	510.23669	-392.47714	27.92468	505.92886	-373.82211	25.56904	520.14758	-356.83316	22.31417	522.57587	-353.45892	7.26160	522.88501	-408.25641	27.19243	525.23254	-427.24823	24.39957	536.61707	-430.52029	4.90889	529.11450	-440.56836	4.69954	
7375	61.450	458.76312	-477.43320	54.16284	465.89465	-469.53610	54.16970	479.25626	-453.71436	43.78094	493.93436	-430.84842	39.67336	514.31018	-404.90005	33.17961	537.17944	-380.56561	25.28699	555.96515	-351.72925	18.52168	570.60504	-310.95224	10.27582	577.05750	-271.29529	5.31386	466.35480	-454.65189	23.68915	452.07825	-450.99313	17.70480	446.38107	-460.51645	5.98356	488.55807	-460.26379	28.48012	499.86237	-457.56927	24.01604	508.94586	-453.07648	10.34259	507.93243	-396.82150	27.55415	503.14090	-378.43851	25.55633	517.26434	-360.31467	23.94692	528.46863	-354.57642	8.15794	521.01636	-411.89700	26.81998	524.44818	-431.03452	24.39639	536.24554	-430.68661	4.74404	529.11383	-440.85434	4.80467	
7376	61.458	455.16702	-480.75674	52.81897	463.03915	-472.40237	51.87589	475.97983	-457.15750	42.79826	491.40701	-434.68842	38.62566	511.70395	-408.65045	32.86275	534.75275	-383.93039	25.75604	554.47424	-355.56796	19.22582	570.70898	-315.61169	10.22404	578.18774	-276.23767	5.23588	461.25418	-457.04730	24.30293	450.87866	-449.10135	16.11274	445.81888	-460.21835	5.41746	485.17435	-464.57990	28.41196	496.69171	-461.87921	24.50856	505.43164	-459.45969	9.47187	505.38010	-400.82339	27.28451	499.47589	-383.52524	26.47684	514.12744	-364.66290	25.66920	519.84967	-359.41302	10.83172	518.91211	-415.05081	26.13595	524.01733	-433.90085	24.24011	536.26471	-430.92117	5.21418	529.03564	-440.91068	4.67924	
7377	61.467	451.82339	-483.48853	51.22727	458.94492	-475.51471	50.86154	472.93155	-460.40198	41.31893	489.43423	-438.27069	37.51188	509.79681	-412.26492	32.19914	531.84186	-386.89557	26.46124	553.14709	-359.19489	19.83953	570.80090	-319.87912	10.52614	578.73059	-280.69794	5.25207	458.73224	-458.25470	23.24757	449.15350	-448.42633	16.21442	445.58408	-459.51276	4.39954	481.30963	-468.20126	27.51049	493.28284	-466.61414	25.03995	502.52560	-466.66986	8.98097	503.83710	-404.38196	26.89157	495.39343	-387.92026	27.03643	509.92831	-368.62436	25.60573	519.28497	-362.78738	10.75953	517.16284	-418.57028	26.32584	523.78693	-436.24054	23.19505	536.12628	-430.41254	5.79790	528.64911	-440.44470	3.08479	
7378	61.475	448.33414	-486.17944	48.86857	455.82397	-478.26694	50.01616	470.18338	-462.95184	39.76412	487.59476	-441.76727	36.60405	507.61877	-415.44748	32.21279	529.27490	-389.41016	26.15096	551.49561	-362.28241	19.99968	570.48749	-323.48697	11.30957	579.02765	-284.62540	5.45204	456.96738	-459.43478	21.50095	448.49466	-447.80908	15.29560	446.19647	-458.49460	2.81758	477.66083	-471.83127	27.22726	489.74799	-471.52145	24.37353	498.63727	-474.29865	8.95808	501.69077	-407.83414	26.82941	491.25131	-392.41940	27.58215	506.40958	-373.62744	26.93131	514.90704	-367.09171	12.08935	515.30121	-420.77875	25.13760	523.79388	-438.08685	22.20205	536.01080	-430.44440	5.78158	528.67303	-440.45831	3.10656	
7379	61.483	445.64691	-488.27258	47.98904	452.65833	-479.78867	48.68623	467.67386	-465.51556	39.36977	486.01794	-444.71179	35.51009	505.65573	-418.51358	31.27614	526.47296	-391.47696	26.13056	549.62433	-365.02206	20.49310	569.94220	-326.88434	12.10144	579.83313	-288.17899	5.65703	454.69678	-460.52466	21.24825	448.22028	-447.59927	14.84730	445.66513	-458.90433	3.34518	474.13892	-474.44159	26.91562	486.09296	-476.17584	25.40450	493.52319	-482.51944	10.24892	499.04507	-411.13528	26.68312	487.69577	-397.09894	28.14119	502.47787	-378.09329	26.39090	507.82822	-369.92346	15.44407	513.82690	-423.43118	25.00483	523.68994	-439.05814	21.02920	536.05383	-430.61426	6.10242	529.03564	-440.91068	4.67924	
7380	61.492	443.16589	-490.40305	47.49206	450.27682	-482.60324	48.99086	465.35886	-467.68076	38.47367	484.51260	-447.29828	34.93434	504.09238	-420.94394	30.96576	523.77570	-393.26614	26.08133	547.40173	-367.06873	20.52923	568.95349	-329.64972	12.13131	580.58337	-291.44934	5.55838	453.37939	-461.53860	20.41885	447.84238	-447.80002	15.01535	445.75482	-458.96045	3.13964	470.97351	-476.86667	27.10642	482.46011	-479.91986	26.00527	487.80197	-489.54575	12.69078	498.07278	-413.95166	25.12563	484.20557	-400.89423	28.52342	498.80270	-383.30084	27.01937	502.92560	-374.46048	14.64462	512.36682	-425.69806	24.54365	523.84235	-441.19095	21.76149	536.36975	-430.87881	7.36102	529.03571	-440.91077	4.67939	
7381	61.500	440.84653	-491.47012	46.32299	447.95554	-484.14310	48.49502	463.25937	-469.38553	38.16870	482.95105	-449.48734	34.10952	502.30685	-423.46991	30.77715	521.38403	-394.92917	25.97871	544.91968	-368.74896	20.47837	567.69220	-331.84317	11.88699	581.07758	-294.28329	5.37120	451.38568	-462.70441	20.30138	447.65073	-448.08151	15.22326	445.54276	-459.05954	3.28244	468.07172	-478.89267	27.31304	479.20508	-483.26318	26.93409	481.41510	-495.49982	13.50303	496.43585	-416.04288	24.50396	481.19730	-405.65048	29.25697	495.32751	-387.17728	26.97361	499.48181	-377.93237	15.64704	511.09363	-427.58585	24.17750	523.20074	-441.91360	19.60628	534.47687	-428.89709	4.22309	528.58411	-440.43002	3.13197	
7382	61.508	438.76404	-493.31708	46.63778	445.38092	-485.43359	46.94276	461.52231	-471.16159	38.09972	481.38251	-451.51947	33.81076	500.58408	-425.60254	30.64341	519.18512	-396.58075	25.59986	542.39276	-370.05386	20.22142	565.99426	-333.67554	11.82207	580.86981	-296.55939	5.51789	450.31116	-463.51175	20.46387	447.39618	-448.85751	16.04892	445.25729	-459.20068	3.37561	465.53363	-480.42123	27.23511	476.07947	-485.96768	27.04698	475.09848	-499.80307	15.99036	495.66507	-418.27893	23.74341	478.90469	-410.27686	30.10389	491.94409	-391.82339	25.62386	491.78479	-382.85281	15.51573	509.77829	-429.38083	23.85831	523.20135	-442.43301	20.14377	536.00092	-430.88785	8.20811	528.60187	-440.50305	3.17550	
7383	61.517	436.97479	-494.47778	46.51499	443.58640	-487.05139	46.86805	459.78665	-472.63443	38.16355	480.14020	-453.41980	33.98116	499.21497	-427.27939	30.08584	516.47278	-398.41342	26.23348	539.96692	-371.02499	19.62691	564.05316	-334.87582	11.13615	580.31311	-298.52338	5.51355	448.80298	-464.56918	20.39386	446.87531	-449.62170	16.70164	444.28540	-459.82492	3.59288	463.54422	-482.09753	27.14252	473.60934	-488.28564	27.25968	469.54919	-502.70560	17.76112	495.87723	-420.56799	22.44813	477.11606	-413.39587	30.22258	487.64807	-395.78564	22.81403	484.06580	-387.37402	14.86960	508.45111	-430.74124	23.50144	522.21729	-443.25815	18.95197	534.79785	-430.16855	7.24548	528.50330	-440.41208	3.21523	
7384	61.525	435.20615	-495.36752	47.55462	441.97455	-488.04056	46.77468	458.07666	-473.32730	38.63542	478.58813	-454.53778	33.96870	498.16934	-428.81216	30.63826	514.32703	-399.51208	25.64696	537.50214	-371.66202	19.11546	561.95288	-335.88174	10.75924	579.44501	-299.86417	5.57924	447.35870	-465.53006	21.21521	446.37143	-450.32941	17.41555	444.12473	-460.11597	3.82866	461.79773	-483.30594	26.93108	471.31421	-490.64230	27.27404	465.02325	-504.76270	19.11160	490.98999	-422.96533	25.37676	475.27286	-415.90942	29.21889	486.22513	-399.95444	20.23130	482.09998	-391.15744	12.14617	507.18466	-431.94836	23.41935	522.05164	-443.31375	19.51349	534.97156	-430.70297	9.20224	529.72314	-442.04886	6.87733	
7385	61.533	434.15228	-496.13608	47.58816	440.68799	-488.65833	47.45196	456.49017	-474.31519	38.66070	477.31158	-455.54462	34.08846	494.85355	-430.80038	29.94935	512.43146	-400.16925	24.75583	535.08026	-372.28864	18.65834	559.77771	-336.32874	10.16124	578.30176	-300.88748	5.23619	448.64737	-465.46530	18.93583	445.94620	-450.89426	17.89409	443.80908	-460.30164	4.08518	460.16840	-484.55777	27.24360	469.12344	-492.44824	27.40077	461.17935	-506.08032	19.63632	488.36472	-424.89301	24.88823	473.30728	-419.79318	29.10557	484.23648	-403.02411	18.37321	474.90509	-396.59186	14.45895	506.17841	-433.17303	24.50282	521.69092	-444.02792	20.62611	534.35431	-430.63782	10.22247	527.94397	-440.61984	2.92172	
7386	61.542	432.51520	-496.62347	47.84961	439.40482	-489.46814	48.19316	455.08542	-474.90598	39.34761	476.22141	-456.21112	34.11425	493.17419	-431.29431	29.94978	510.40909	-400.83136	23.94653	532.78864	-372.67352	17.55772	557.50012	-336.92041	9.57634	577.36169	-301.99908	5.43825	447.22467	-466.04538	19.71112	445.41092	-451.19794	18.20383	443.88589	-460.35385	4.00851	458.50244	-485.33893	27.21157	466.94980	-493.95111	27.55293	457.89713	-506.86301	19.91898	491.52811	-423.49808	20.35171	471.84012	-424.68280	30.98681	479.20239	-405.69901	17.44006	468.02896	-402.01898	15.34388	504.89871	-433.54279	22.84058	521.04242	-444.63055	21.00452	533.75537	-430.59106	10.47486	527.86798	-440.55725	3.01990	
